<svg width="1440" height="398" viewBox="0 0 1440 398" fill="none" xmlns="http://www.w3.org/2000/svg">
<g id="Shape Divicders">
<path id="6" opacity="0.25" d="M1680 398C1680 398 1680 221.494 1680 199.753C1584.02 199.753 1583.66 85 1487.68 85C1391.7 85 1391.7 199.753 1295.71 199.753C1199.73 199.753 1199.73 142.111 1103.74 142.111C1007.76 142.111 1007.76 273.996 911.774 273.996C815.792 273.996 815.792 90.7111 719.809 90.7111C623.826 90.7111 623.826 199.753 527.844 199.753C431.865 199.753 431.865 124.977 335.885 124.977C239.906 124.977 239.906 228.308 143.927 228.308C47.9481 228.308 47.9481 142.111 -48.031 142.111C-144.017 142.111 -144.017 199.753 -240 199.753V398H1680Z" fill="#EBEDF3"/>
<path id="6_2" opacity="0.35" d="M1680 398C1680 398 1680 255.111 1680 239.642C1584.02 239.642 1583.66 158 1487.68 158C1391.7 158 1391.7 239.642 1295.71 239.642C1199.73 239.642 1199.73 198.632 1103.74 198.632C1007.76 198.632 1007.76 292.464 911.774 292.464C815.792 292.464 815.792 162.063 719.809 162.063C623.826 162.063 623.826 239.642 527.844 239.642C431.865 239.642 431.865 186.442 335.885 186.442C239.906 186.442 239.906 259.958 143.927 259.958C47.9481 259.958 47.9481 198.632 -48.031 198.632C-144.017 198.632 -144.017 239.642 -240 239.642V398H1680Z" fill="#EBEDF3"/>
<path id="6_3" opacity="0.134263" d="M-240 398C-240 398 -240 182.352 -240 153.306C-144.021 153.306 -143.664 0 -47.6815 0C48.3012 0 48.3012 153.306 144.287 153.306C240.274 153.306 240.274 76.298 336.256 76.298C432.243 76.298 432.243 252.493 528.226 252.493C624.208 252.493 624.208 7.62979 720.191 7.62979C816.174 7.62979 816.174 153.306 912.156 153.306C1008.14 153.306 1008.14 53.4086 1104.11 53.4086C1200.09 53.4086 1200.09 191.455 1296.07 191.455C1392.05 191.455 1392.05 76.298 1488.03 76.298C1584.02 76.298 1584.02 153.306 1680 153.306V398H-240Z" fill="#EBEDF3"/>
<path id="6_4" d="M1680 558C1680 558 1680 287.481 1680 266.856C1584.02 266.856 1583.66 158 1487.68 158C1391.7 158 1391.7 266.856 1295.71 266.856C1199.73 266.856 1199.73 212.176 1103.74 212.176C1007.76 212.176 1007.76 337.285 911.774 337.285C815.792 337.285 815.792 163.418 719.809 163.418C623.826 163.418 623.826 266.856 527.844 266.856C431.865 266.856 431.865 195.923 335.885 195.923C239.906 195.923 239.906 293.944 143.927 293.944C47.9481 293.944 47.9481 212.176 -48.031 212.176C-144.017 212.176 -144.017 266.856 -240 266.856V558H1680Z" fill="#EBEDF3"/>
</g>
</svg>
